<svg xmlns="http://www.w3.org/2000/svg" viewBox="0 0 39 64" width="64" height="64"><path d="M30.965909090909093 36.56107954545455C29.82102272727273 32.147727272727266 26.367897727272727 29.267045454545453 20.23721590909091 29.267045454545453C13.829545454545455 29.267045454545453 9.286931818181818 32.64630681818181 9.286931818181818 37.66903409090909C9.286931818181818 41.69460227272727 11.724431818181818 44.37215909090909 17.042613636363637 45.55397727272727L21.84375 46.60653409090909C24.576704545454547 47.21590909090909 25.850852272727273 48.43465909090909 25.850852272727273 50.20738636363636C25.850852272727273 52.40482954545455 23.50568181818182 54.12215909090909 19.886363636363637 54.12215909090909C16.58096590909091 54.12215909090909 14.457386363636363 52.70028409090909 13.792613636363637 49.91193181818182L8.45596590909091 50.72443181818182C9.379261363636363 55.74715909090909 13.552556818181818 58.57244318181818 19.923295454545453 58.57244318181818C26.774147727272727 58.57244318181818 31.519886363636363 54.93465909090909 31.519886363636363 49.80113636363636C31.519886363636363 45.79403409090909 28.97159090909091 43.31960227272727 23.764204545454547 42.11931818181818L19.258522727272727 41.08522727272727C16.137784090909093 40.34659090909091 14.789772727272728 39.29403409090909 14.808238636363637 37.37357954545455C14.789772727272728 35.194602272727266 17.153409090909093 33.64346590909091 20.292613636363637 33.64346590909091C23.727272727272727 33.64346590909091 25.31534090909091 35.54545454545455 25.961647727272727 37.44744318181818Z" fill="#1E3A8A"/></svg>