<svg xmlns="http://www.w3.org/2000/svg" viewBox="0 0 297 72" width="891" height="216">
  <rect width="297" height="72" fill="#0F172A"/>
  <path d="M36.96590909090909 40.56107954545455C35.821022727272734 36.147727272727266 32.36789772727273 33.26704545454545 26.23721590909091 33.26704545454545C19.829545454545453 33.26704545454545 15.286931818181818 36.64630681818181 15.286931818181818 41.66903409090909C15.286931818181818 45.69460227272727 17.72443181818182 48.37215909090909 23.042613636363637 49.55397727272727L27.84375 50.60653409090909C30.576704545454547 51.21590909090909 31.850852272727273 52.43465909090909 31.850852272727273 54.20738636363636C31.850852272727273 56.40482954545455 29.50568181818182 58.12215909090909 25.886363636363637 58.12215909090909C22.58096590909091 58.12215909090909 20.457386363636363 56.70028409090909 19.792613636363637 53.91193181818182L14.45596590909091 54.72443181818182C15.379261363636363 59.74715909090909 19.55255681818182 62.57244318181818 25.923295454545453 62.57244318181818C32.77414772727273 62.57244318181818 37.51988636363636 58.93465909090909 37.51988636363636 53.80113636363636C37.51988636363636 49.79403409090909 34.97159090909091 47.31960227272727 29.764204545454547 46.11931818181818L25.258522727272727 45.08522727272727C22.137784090909093 44.34659090909091 20.789772727272727 43.29403409090909 20.808238636363637 41.37357954545455C20.789772727272727 39.194602272727266 23.153409090909093 37.64346590909091 26.292613636363637 37.64346590909091C29.727272727272727 37.64346590909091 31.31534090909091 39.54545454545455 31.961647727272727 41.44744318181818Z M55.524147727272734 62.57244318181818C63.51988636363637 62.57244318181818 68.74573863636364 56.71875 68.74573863636364 47.94744318181818C68.74573863636364 39.12073863636364 63.51988636363637 33.26704545454545 55.524147727272734 33.26704545454545C47.52840909090909 33.26704545454545 42.30255681818182 39.12073863636364 42.30255681818182 47.94744318181818C42.30255681818182 56.71875 47.52840909090909 62.57244318181818 55.524147727272734 62.57244318181818ZM55.54261363636364 57.9375C50.31676136363637 57.9375 47.87926136363637 53.37642045454545 47.87926136363637 47.92897727272727C47.87926136363637 42.5 50.31676136363637 37.88352272727273 55.54261363636364 37.88352272727273C60.73153409090909 37.88352272727273 63.16903409090909 42.5 63.16903409090909 47.92897727272727C63.16903409090909 53.37642045454545 60.73153409090909 57.9375 55.54261363636364 57.9375Z M88.3934659090909 33.63636363636363H82.28125V31.08806818181818C82.28125 28.576704545454547 83.3153409090909 27.210227272727273 86.01136363636364 27.210227272727273C87.15625 27.210227272727273 87.96875 27.46875 88.48579545454547 27.63494318181818L89.7784090909091 23.16619318181818C89.0028409090909 22.870738636363633 87.39630681818183 22.409090909090907 85.16193181818183 22.409090909090907C80.6747159090909 22.409090909090907 76.74147727272728 25.03125 76.74147727272728 30.349431818181817V33.63636363636363H72.36505681818183V38.06818181818181H76.74147727272728V62.0H82.28125V38.06818181818181H88.3934659090909Z M107.32102272727273 33.63636363636363H101.50426136363637V26.840909090909086H95.98295454545455V33.63636363636363H91.828125V38.06818181818181H95.98295454545455V54.81676136363636C95.96448863636364 59.96875 99.89772727272728 62.46164772727273 104.25568181818183 62.36931818181818C106.00994318181819 62.35085227272727 107.19176136363637 62.01846590909091 107.83806818181819 61.77840909090909L106.8409090909091 57.21732954545455C106.4715909090909 57.29119318181818 105.78835227272728 57.45738636363636 104.90198863636364 57.45738636363636C103.11079545454547 57.45738636363636 101.50426136363637 56.86647727272727 101.50426136363637 53.671875V38.06818181818181H107.32102272727273Z M125.63920454545455 62.57244318181818C131.8252840909091 62.57244318181818 136.20170454545456 59.52556818181818 137.45738636363637 54.90909090909091L132.2315340909091 53.96732954545455C131.234375 56.64488636363636 128.8338068181818 58.01136363636363 125.69460227272728 58.01136363636363C120.96732954545455 58.01136363636363 117.79119318181819 54.94602272727273 117.6434659090909 49.48011363636363H137.80823863636363V47.52272727272727C137.80823863636363 37.27414772727273 131.6775568181818 33.26704545454545 125.25142045454545 33.26704545454545C117.34801136363636 33.26704545454545 112.140625 39.28693181818181 112.140625 48.00284090909091C112.140625 56.81107954545455 117.27414772727273 62.57244318181818 125.63920454545455 62.57244318181818ZM117.66193181818181 45.34375C117.88352272727273 41.31818181818181 120.80113636363636 37.828125 125.28835227272728 37.828125C129.5724431818182 37.828125 132.37926136363637 41.00426136363636 132.39772727272728 45.34375Z M143.95738636363637 62.0H149.4786931818182V44.67897727272727C149.4786931818182 40.96732954545455 152.34090909090912 38.28977272727273 156.25568181818184 38.28977272727273C157.4005681818182 38.28977272727273 158.69318181818184 38.49289772727273 159.13636363636365 38.62215909090909V33.34090909090909C158.58238636363637 33.26704545454545 157.49289772727275 33.21164772727273 156.7911931818182 33.21164772727273C153.46732954545456 33.21164772727273 150.62357954545456 35.09517045454545 149.58948863636365 38.14204545454545H149.29403409090912V33.63636363636363H143.95738636363637Z M175.8849431818182 62.57244318181818C182.5880681818182 62.57244318181818 186.9275568181818 58.546875 187.5369318181818 53.02556818181818H182.16335227272728C181.46164772727275 56.09090909090909 179.07954545454547 57.90056818181818 175.921875 57.90056818181818C171.25 57.90056818181818 168.2400568181818 54.00426136363636 168.2400568181818 47.81818181818181C168.2400568181818 41.74289772727273 171.30539772727275 37.92045454545455 175.921875 37.92045454545455C179.43039772727275 37.92045454545455 181.5724431818182 40.13636363636364 182.16335227272728 42.79545454545455H187.5369318181818C186.94602272727275 37.07102272727273 182.27414772727275 33.26704545454545 175.82954545454547 33.26704545454545C167.8338068181818 33.26704545454545 162.66335227272728 39.28693181818181 162.66335227272728 47.94744318181818C162.66335227272728 56.49715909090909 167.64914772727275 62.57244318181818 175.8849431818182 62.57244318181818Z M205.4119318181818 62.57244318181818C213.40767045454544 62.57244318181818 218.63352272727272 56.71875 218.63352272727272 47.94744318181818C218.63352272727272 39.12073863636364 213.40767045454544 33.26704545454545 205.4119318181818 33.26704545454545C197.4161931818182 33.26704545454545 192.1903409090909 39.12073863636364 192.1903409090909 47.94744318181818C192.1903409090909 56.71875 197.4161931818182 62.57244318181818 205.4119318181818 62.57244318181818ZM205.43039772727272 57.9375C200.20454545454544 57.9375 197.76704545454544 53.37642045454545 197.76704545454544 47.92897727272727C197.76704545454544 42.5 200.20454545454544 37.88352272727273 205.43039772727272 37.88352272727273C210.6193181818182 37.88352272727273 213.0568181818182 42.5 213.0568181818182 47.92897727272727C213.0568181818182 53.37642045454545 210.6193181818182 57.9375 205.43039772727272 57.9375Z M230.3039772727273 24.18181818181818H224.78267045454547V62.0H230.3039772727273Z M249.6747159090909 62.57244318181818C257.67045454545456 62.57244318181818 262.8963068181818 56.71875 262.8963068181818 47.94744318181818C262.8963068181818 39.12073863636364 257.67045454545456 33.26704545454545 249.6747159090909 33.26704545454545C241.67897727272728 33.26704545454545 236.453125 39.12073863636364 236.453125 47.94744318181818C236.453125 56.71875 241.67897727272728 62.57244318181818 249.6747159090909 62.57244318181818ZM249.6931818181818 57.9375C244.46732954545456 57.9375 242.02982954545456 53.37642045454545 242.02982954545456 47.92897727272727C242.02982954545456 42.5 244.46732954545456 37.88352272727273 249.6931818181818 37.88352272727273C254.88210227272728 37.88352272727273 257.31960227272725 42.5 257.31960227272725 47.92897727272727C257.31960227272725 53.37642045454545 254.88210227272728 57.9375 249.6931818181818 57.9375Z M269.0454545454546 62.0H274.56676136363643V44.67897727272727C274.56676136363643 40.96732954545455 277.4289772727273 38.28977272727273 281.34375000000006 38.28977272727273C282.48863636363643 38.28977272727273 283.78125000000006 38.49289772727273 284.22443181818187 38.62215909090909V33.34090909090909C283.6704545454546 33.26704545454545 282.580965909091 33.21164772727273 281.87926136363643 33.21164772727273C278.5553977272728 33.21164772727273 275.7116477272728 35.09517045454545 274.67755681818187 38.14204545454545H274.3821022727273V33.63636363636363H269.0454545454546Z" fill="white"/>
</svg>